<svg width="17" height="10" viewBox="0 0 17 10" fill="none" xmlns="http://www.w3.org/2000/svg">
<path d="M6.38778 3.12358C6.33949 2.9446 6.26847 2.78693 6.17472 2.65057C6.08097 2.51136 5.96591 2.39347 5.82955 2.29688C5.69318 2.20028 5.53693 2.12784 5.3608 2.07955C5.18466 2.02841 4.99148 2.00284 4.78125 2.00284C4.35795 2.00284 3.99148 2.10511 3.68182 2.30966C3.375 2.5142 3.13778 2.8125 2.97017 3.20455C2.80256 3.59375 2.71875 4.06676 2.71875 4.62358C2.71875 5.18324 2.79972 5.66051 2.96165 6.0554C3.12358 6.45028 3.35795 6.75142 3.66477 6.95881C3.97159 7.16619 4.34375 7.26989 4.78125 7.26989C5.16761 7.26989 5.49432 7.20739 5.76136 7.08239C6.03125 6.95455 6.2358 6.77415 6.375 6.54119C6.5142 6.30824 6.58381 6.03409 6.58381 5.71875L6.97585 5.76562H4.85369V4.22727H8.61648V5.3821C8.61648 6.16335 8.45028 6.83239 8.1179 7.3892C7.78835 7.94602 7.33381 8.37358 6.75426 8.67188C6.17756 8.97017 5.5142 9.11932 4.7642 9.11932C3.93182 9.11932 3.20028 8.93892 2.5696 8.57812C1.93892 8.21733 1.44744 7.70312 1.09517 7.03551C0.742898 6.36506 0.566761 5.5696 0.566761 4.64915C0.566761 3.93324 0.673295 3.2983 0.886364 2.74432C1.09943 2.1875 1.39631 1.71591 1.77699 1.32955C2.16051 0.943182 2.60369 0.650568 3.10653 0.451704C3.61222 0.252841 4.15625 0.153409 4.73864 0.153409C5.24432 0.153409 5.71449 0.225852 6.14915 0.370739C6.58665 0.515625 6.97301 0.72017 7.30824 0.984375C7.64631 1.24858 7.92045 1.5625 8.13068 1.92614C8.34091 2.28977 8.47159 2.68892 8.52273 3.12358H6.38778ZM9.85973 9V0.272727H13.4648C14.1183 0.272727 14.6822 0.390625 15.1566 0.62642C15.6339 0.859375 16.0018 1.1946 16.2603 1.6321C16.5188 2.06676 16.6481 2.58239 16.6481 3.17898C16.6481 3.78409 16.516 4.2983 16.2518 4.72159C15.9876 5.14205 15.6126 5.46307 15.1268 5.68466C14.641 5.90341 14.0657 6.01278 13.4009 6.01278H11.1211V4.35085H13.0089C13.3271 4.35085 13.5927 4.30966 13.8058 4.22727C14.0217 4.14205 14.185 4.0142 14.2958 3.84375C14.4066 3.67045 14.462 3.44886 14.462 3.17898C14.462 2.90909 14.4066 2.68608 14.2958 2.50994C14.185 2.33097 14.0217 2.19744 13.8058 2.10938C13.5898 2.01847 13.3242 1.97301 13.0089 1.97301H11.9691V9H9.85973ZM14.7731 5.01136L16.9464 9H14.6452L12.5146 5.01136H14.7731Z" fill="white"/>
</svg>
